
        <svg xmlns="http://www.w3.org/2000/svg" xmlns:xlink="http://www.w3.org/1999/xlink" version="1.1" width="3176.470588235294" height="563.6015633075253" viewBox="0 0 3176.470588235294 563.6015633075253">
			
			<g transform="scale(8.823529411764707) translate(10, 10)">
				<defs id="SvgjsDefs1590"/><g id="SvgjsG1591" featureKey="K5GtsI-0" transform="matrix(3.005126408292236,0,0,3.005126408292236,1.382358978928872,-17.189323857886915)" fill="#fff"><path d="M12.1 20 l-1.18 -2.64 l-7.32 0 l-1.2 2.64 l-2.86 0 l6.28 -14 l2.88 0 l6.28 14 l-2.88 0 z M9.86 14.9 l-2.6 -5.96 l-2.6 5.96 l5.2 0 z M26.5 16.42 l1.8 1.82 c-1.44 1.42 -3.3 2.08 -5.32 2.08 c-5.2 0 -7.4 -3.58 -7.42 -7.22 c-0.02 -3.66 2.36 -7.38 7.42 -7.38 c1.9 0 3.7 0.72 5.14 2.14 l-1.76 1.7 c-0.92 -0.9 -2.16 -1.32 -3.38 -1.32 c-3.38 0 -4.84 2.52 -4.82 4.86 c0.02 2.32 1.36 4.74 4.82 4.74 c1.22 0 2.6 -0.5 3.52 -1.42 z M39.7 16.42 l1.8 1.82 c-1.44 1.42 -3.3 2.08 -5.32 2.08 c-5.2 0 -7.4 -3.58 -7.42 -7.22 c-0.02 -3.66 2.36 -7.38 7.42 -7.38 c1.9 0 3.7 0.72 5.14 2.14 l-1.76 1.7 c-0.92 -0.9 -2.16 -1.32 -3.38 -1.32 c-3.38 0 -4.84 2.52 -4.82 4.86 c0.02 2.32 1.36 4.74 4.82 4.74 c1.22 0 2.6 -0.5 3.52 -1.42 z M55.4 19.82 l0 0.18 l-3.14 0 l-4.08 -4.68 l-2.54 0 l0 4.68 l-2.64 0 l0 -14.02 c2.22 0 4.44 0.02 6.66 0.02 c3.3 0.02 5.04 2.22 5.04 4.64 c0 1.92 -0.88 3.86 -3.54 4.4 z M49.66 8.46 l-4.02 0 l0 4.48 l4.02 0 c1.68 0 2.4 -1.12 2.4 -2.24 s-0.74 -2.24 -2.4 -2.24 z M66.92 17.4 l0 2.6 l-10.48 0 l0 -14 l10.48 0 l0 2.56 l-7.86 0 l0 3.22 l7.58 0 l0 2.46 l-7.58 0 l0 3.16 l7.86 0 z M73.39999999999999 20 l0 -11.6 l-4.44 0 l0 -2.4 l11.52 0 l0 2.4 l-4.44 0 l0 11.6 l-2.64 0 z M84.72 20 l-2.62 0 l0 -14 l2.62 0 l0 14 z M100.62 6 l-5.82 14.06 l-2.74 0 l-5.82 -14.06 l2.96 0 l4.22 10.9 l4.24 -10.9 l2.96 0 z M112.68 17.4 l0 2.6 l-10.48 0 l0 -14 l10.48 0 l0 2.56 l-7.86 0 l0 3.22 l7.58 0 l0 2.46 l-7.58 0 l0 3.16 l7.86 0 z"/></g>
			</g>
		</svg>
	